<svg xmlns="http://www.w3.org/2000/svg" xmlns:xlink="http://www.w3.org/1999/xlink" viewBox="0 0 632.5 604.99976"><defs><path id="reuse-16" d="M4.20898 497.658H510.209V13.6582H4.20898V497.658z"/><path id="reuse-15" d="M208.204 233.913h279.458V38.376H208.204v195.537z"/><path id="reuse-14" d="M128.268 480.049h263.941v-62.391H128.268v62.391z"/><path id="reuse-13" d="M128.268 481.075h263.941v-63.417H128.268v63.417z"/><path id="reuse-12" d="M30.2681 421.533H132.771V89.3672H30.2681V421.533z"/><path id="reuse-11" d="M15.7295 436.901h90.2455V171.533H15.7295v265.368z"/><path id="reuse-10" d="M33.937 174.185h232.557V33.6709H33.937V174.185z"/><path id="reuse-9" d="M189.21 356.075h33v-76.898h-33v76.898z"/><path id="reuse-8" d="M189.129 356.075h33.081v-77.999h-33.081v77.999z"/><path id="reuse-7" d="M214.236 363.64h45.16v-22.858h-45.16v22.858z"/><path id="reuse-6" d="M179.709 379.678h162.75v-66.77h-162.75v66.77z"/><path id="reuse-5" d="M179.709 385.408h162.75v-72.5h-162.75v72.5z"/><path id="reuse-4" d="M163.456 379.817h183.02V210.666h-183.02v169.151z"/><path id="reuse-3" d="M174.219 320.471h98.49v-98.87h-98.49v98.87z"/><path id="reuse-2" d="M164.334 320.471h108.375V216.908H164.334v103.563z"/><path id="reuse-1" d="M284.348 343.158h54.967V225.436h-54.967v117.722z"/><path id="reuse-0" d="M183.878 378.374h122.998v-36.216H183.878v36.216z"/></defs><defs><clipPath id="be" clipPathUnits="userSpaceOnUse"><path d="M211.71 369.561h67.416v-12.07H211.71v12.07z"/></clipPath><clipPath id="bd" clipPathUnits="userSpaceOnUse"><use xlink:href="#reuse-0"/></clipPath><clipPath id="b" clipPathUnits="userSpaceOnUse"><path d="M183.878 405.657h122.998v-63.499H183.878v63.499z"/></clipPath><clipPath id="a" clipPathUnits="userSpaceOnUse"><use xlink:href="#reuse-0"/></clipPath><clipPath id="bb" clipPathUnits="userSpaceOnUse"><path d="M299.771 343.158h25.346v-86h-25.346v86z"/></clipPath><clipPath id="ba" clipPathUnits="userSpaceOnUse"><path d="M298.146 343.158h32.091v-88.875h-32.091v88.875z"/></clipPath><clipPath id="aY" clipPathUnits="userSpaceOnUse"><use xlink:href="#reuse-1"/></clipPath><clipPath id="e" clipPathUnits="userSpaceOnUse"><path d="M284.348 343.158h103.695V225.436H284.348v117.722z"/></clipPath><clipPath id="d" clipPathUnits="userSpaceOnUse"><use xlink:href="#reuse-1"/></clipPath><clipPath id="aW" clipPathUnits="userSpaceOnUse"><path d="M175.361 320.471h12.723v-49.063h-12.723v49.063z"/></clipPath><clipPath id="aV" clipPathUnits="userSpaceOnUse"><path d="M182.737 275.494h89.972v-43.239h-89.972v43.239z"/></clipPath><clipPath id="aT" clipPathUnits="userSpaceOnUse"><use xlink:href="#reuse-3"/></clipPath><clipPath id="h" clipPathUnits="userSpaceOnUse"><use xlink:href="#reuse-2"/></clipPath><clipPath id="g" clipPathUnits="userSpaceOnUse"><use xlink:href="#reuse-3"/></clipPath><clipPath id="aQ" clipPathUnits="userSpaceOnUse"><use xlink:href="#reuse-4"/></clipPath><clipPath id="k" clipPathUnits="userSpaceOnUse"><path d="M161.77 381.625h187.25V208.501H161.77v173.124z"/></clipPath><clipPath id="j" clipPathUnits="userSpaceOnUse"><use xlink:href="#reuse-4"/></clipPath><clipPath id="aO" clipPathUnits="userSpaceOnUse"><use xlink:href="#reuse-6"/></clipPath><clipPath id="n" clipPathUnits="userSpaceOnUse"><use xlink:href="#reuse-5"/></clipPath><clipPath id="m" clipPathUnits="userSpaceOnUse"><use xlink:href="#reuse-6"/></clipPath><clipPath id="aM" clipPathUnits="userSpaceOnUse"><use xlink:href="#reuse-7"/></clipPath><clipPath id="q" clipPathUnits="userSpaceOnUse"><path d="M212.584 365.283h46.812v-25.562h-46.812v25.562z"/></clipPath><clipPath id="p" clipPathUnits="userSpaceOnUse"><use xlink:href="#reuse-7"/></clipPath><clipPath id="aK" clipPathUnits="userSpaceOnUse"><use xlink:href="#reuse-9"/></clipPath><clipPath id="t" clipPathUnits="userSpaceOnUse"><use xlink:href="#reuse-8"/></clipPath><clipPath id="s" clipPathUnits="userSpaceOnUse"><use xlink:href="#reuse-9"/></clipPath><clipPath id="aH" clipPathUnits="userSpaceOnUse"><use xlink:href="#reuse-10"/></clipPath><clipPath id="w" clipPathUnits="userSpaceOnUse"><path d="M33.937 174.185h232.557V30.9912H33.937V174.185z"/></clipPath><clipPath id="v" clipPathUnits="userSpaceOnUse"><use xlink:href="#reuse-10"/></clipPath><clipPath id="aF" clipPathUnits="userSpaceOnUse"><use xlink:href="#reuse-11"/></clipPath><clipPath id="z" clipPathUnits="userSpaceOnUse"><path d="M11.8755 436.902h94.1005V171.533H11.8755v265.369z"/></clipPath><clipPath id="y" clipPathUnits="userSpaceOnUse"><use xlink:href="#reuse-11"/></clipPath><clipPath id="aD" clipPathUnits="userSpaceOnUse"><use xlink:href="#reuse-12"/></clipPath><clipPath id="C" clipPathUnits="userSpaceOnUse"><path d="M27.084 421.533h107.625V87.2354H27.084V421.533z"/></clipPath><clipPath id="B" clipPathUnits="userSpaceOnUse"><use xlink:href="#reuse-12"/></clipPath><clipPath id="aB" clipPathUnits="userSpaceOnUse"><path d="M78.7988 411.741h44.8122v-50.749H78.7988v50.749z"/></clipPath><clipPath id="aA" clipPathUnits="userSpaceOnUse"><path d="M134.084 343.039h87.166V190.938h-87.166v152.101z"/></clipPath><clipPath id="az" clipPathUnits="userSpaceOnUse"><path d="M103.229 442.453h31.533v-85.341h-31.533v85.341z"/></clipPath><clipPath id="ay" clipPathUnits="userSpaceOnUse"><path d="M239.188 40.3613h27.306v-4.248h-27.306v4.248z"/></clipPath><clipPath id="ax" clipPathUnits="userSpaceOnUse"><path d="M132.725 114.152h98.651V40.8203h-98.651v73.3317z"/></clipPath><clipPath id="aw" clipPathUnits="userSpaceOnUse"><path d="M197.178 61.6895h58.71V41.7412h-58.71v19.9483z"/></clipPath><clipPath id="av" clipPathUnits="userSpaceOnUse"><path d="M130.994 201.783h130.687V38.8633H130.994V201.783z"/></clipPath><clipPath id="au" clipPathUnits="userSpaceOnUse"><path d="M149.165 329.522h72.476V201.783h-72.476v127.739z"/></clipPath><clipPath id="at" clipPathUnits="userSpaceOnUse"><path d="M105.362 442.441h29.4v-85.329h-29.4v85.329z"/></clipPath><clipPath id="ar" clipPathUnits="userSpaceOnUse"><path d="M160.318 399.978h304.709v-77.01H160.318v77.01z"/></clipPath><clipPath id="aq" clipPathUnits="userSpaceOnUse"><use xlink:href="#reuse-14"/></clipPath><clipPath id="F" clipPathUnits="userSpaceOnUse"><use xlink:href="#reuse-13"/></clipPath><clipPath id="E" clipPathUnits="userSpaceOnUse"><use xlink:href="#reuse-14"/></clipPath><clipPath id="ao" clipPathUnits="userSpaceOnUse"><path d="M145.473 452.822h30.715V427.5h-30.715v25.322z"/></clipPath><clipPath id="an" clipPathUnits="userSpaceOnUse"><path d="M131.21 432.158h13.943v-31.252H131.21v31.252z"/></clipPath><clipPath id="am" clipPathUnits="userSpaceOnUse"><path d="M128.235 454.491H466.04V326.177H128.235v128.314z"/></clipPath><clipPath id="ak" clipPathUnits="userSpaceOnUse"><path d="M442.744 389.332h38.38v-106.63h-38.38v106.63z"/></clipPath><clipPath id="aj" clipPathUnits="userSpaceOnUse"><path d="M451.423 372.208h25.457v-87.924h-25.457v87.924z"/></clipPath><clipPath id="ai" clipPathUnits="userSpaceOnUse"><path d="M336.357 331.413h23.353v-94.68h-23.353v94.68z"/></clipPath><clipPath id="ah" clipPathUnits="userSpaceOnUse"><use xlink:href="#reuse-15"/></clipPath><clipPath id="I" clipPathUnits="userSpaceOnUse"><path d="M208.204 233.913h279.458V37.0957H208.204V233.913z"/></clipPath><clipPath id="H" clipPathUnits="userSpaceOnUse"><use xlink:href="#reuse-15"/></clipPath><clipPath id="af" clipPathUnits="userSpaceOnUse"><path d="M159.348 331.413h218.036V40.0908H159.348V331.413z"/></clipPath><clipPath id="ae" clipPathUnits="userSpaceOnUse"><path d="M353.305 328.46h115.917v-44.905H353.305v44.905z"/></clipPath><clipPath id="ad" clipPathUnits="userSpaceOnUse"><path d="M456.298 370.215h22.026v-62.807h-22.026v62.807z"/></clipPath><clipPath id="ac" clipPathUnits="userSpaceOnUse"><path d="M358.834 270.554h128.828V65.1289H358.834V270.554z"/></clipPath><clipPath id="ab" clipPathUnits="userSpaceOnUse"><path d="M361.646 268.408h125.211V65.4961H361.646V268.408z"/></clipPath><clipPath id="aa" clipPathUnits="userSpaceOnUse"><path d="M281.646 96.1582h64.208V42.3213h-64.208v53.8369z"/></clipPath><clipPath id="Z" clipPathUnits="userSpaceOnUse"><path d="M284.084 95.0332h60.846V42.5391h-60.846v52.4941z"/></clipPath><clipPath id="X" clipPathUnits="userSpaceOnUse"><path d="M336.673 333.388H453.22v-38.477H336.673v38.477z"/></clipPath><clipPath id="W" clipPathUnits="userSpaceOnUse"><path d="M451.423 324.121h6.413v-23.464h-6.413v23.464z"/></clipPath><clipPath id="V" clipPathUnits="userSpaceOnUse"><path d="M122.214 421.622h186.265V115.509H122.214v306.113z"/></clipPath><clipPath id="K" clipPathUnits="userSpaceOnUse"><use xlink:href="#reuse-16"/></clipPath><clipPath id="S" clipPathUnits="userSpaceOnUse"><use xlink:href="#reuse-16"/></clipPath><radialGradient id="c" cx="0" cy="0" r="1" fx="0" fy="0" gradientTransform="matrix(44.33203 0 0 -44.33203 246.87695 373.76562)" gradientUnits="userSpaceOnUse" spreadMethod="pad"><stop offset="0" stop-color="#414042"/><stop offset="1" stop-color="#9d9fa2"/></radialGradient><radialGradient id="i" cx="0" cy="0" r="1" fx="0" fy="0" gradientTransform="matrix(52.87071 0 0 -52.87071 213.46387 243.66016)" gradientUnits="userSpaceOnUse" spreadMethod="pad"><stop offset="0" stop-color="#545456"/><stop offset="1" stop-color="#888a8c"/></radialGradient><radialGradient id="L" cx="0" cy="0" r="1" fx=".123642" fy=".00041199" gradientTransform="matrix(.5895 -114.41545 -97.24033 -.501 258.46582 338.7417)" gradientUnits="userSpaceOnUse" spreadMethod="pad"><stop offset="0" stop-color="#fff"/><stop offset=".9832"/><stop offset=".9832"/><stop offset="1"/></radialGradient><radialGradient id="l" cx="0" cy="0" r="1" fx=".109406" fy=".00137329" gradientTransform="matrix(-.47232 -110.46269 -96.73715 .41364 258.46582 335.2417)" gradientUnits="userSpaceOnUse" spreadMethod="pad"><stop offset="0"/><stop offset=".9832" stop-color="#fff"/><stop offset=".9832" stop-color="#fff"/><stop offset="1" stop-color="#fff"/></radialGradient><radialGradient id="O" cx="0" cy="0" r="1" fx=".216034" fy="-.00463867" gradientTransform="matrix(-.40784 -139.25677 -139.25677 .40784 257.96582 347.2417)" gradientUnits="userSpaceOnUse" spreadMethod="pad"><stop offset="0" stop-color="#b0ddf3"/><stop offset="1" stop-color="#005edb"/></radialGradient><radialGradient id="P" cx="0" cy="0" r="1" fx="-.00891113" fy=".00097656" gradientTransform="matrix(-199.02205 -83.13937 -114.44565 273.96414 212.81348 310.07324)" gradientUnits="userSpaceOnUse" spreadMethod="pad"><stop offset="0" stop-color="#91dd96"/><stop offset=".68129" stop-color="#00ad00"/><stop offset=".68129" stop-color="#00ad00"/><stop offset="1" stop-color="#008008"/></radialGradient><radialGradient id="Q" cx="0" cy="0" r="1" fx="0" fy="0" gradientTransform="matrix(11.84473 198.37062 355.44763 -21.22382 267.38867 289.70752)" gradientUnits="userSpaceOnUse" spreadMethod="pad"><stop offset="0" stop-color="#f7010b"/><stop offset=".721237" stop-color="#d90000"/><stop offset=".721237" stop-color="#d90000"/><stop offset=".829605" stop-color="#be0201"/><stop offset="1" stop-color="#e2817d"/></radialGradient><radialGradient id="R" cx="0" cy="0" r="1" fx="0" fy="0" gradientTransform="matrix(154.71136 -104.55475 -154.62616 -228.80284 302.98437 249.18652)" gradientUnits="userSpaceOnUse" spreadMethod="pad"><stop offset="0" stop-color="#fff055"/><stop offset=".617706" stop-color="#f4cf12"/><stop offset=".617706" stop-color="#f4cf12"/><stop offset="1" stop-color="#d0ae1a"/></radialGradient><radialGradient id="Y" cx="0" cy="0" r="1" fx="0" fy="0" gradientTransform="matrix(154.71136 -104.55475 -154.62616 -228.80284 302.98437 249.18652)" gradientUnits="userSpaceOnUse" spreadMethod="pad" xlink:href="#R"/><radialGradient id="al" cx="0" cy="0" r="1" fx="0" fy="0" gradientTransform="matrix(11.84473 198.37062 355.44763 -21.22382 267.38867 289.70752)" gradientUnits="userSpaceOnUse" spreadMethod="pad" xlink:href="#Q"/><radialGradient id="as" cx="0" cy="0" r="1" fx="-.00891113" fy=".00097656" gradientTransform="matrix(-199.02205 -83.13937 -114.44565 273.96414 212.81348 310.07324)" gradientUnits="userSpaceOnUse" spreadMethod="pad" xlink:href="#P"/><radialGradient id="aI" cx="0" cy="0" r="1" fx=".216034" fy="-.00463867" gradientTransform="matrix(-.40784 -139.25677 -139.25677 .40784 257.96582 347.2417)" gradientUnits="userSpaceOnUse" spreadMethod="pad" xlink:href="#O"/><radialGradient id="aR" cx="0" cy="0" r="1" fx=".123642" fy=".00041199" gradientTransform="matrix(.5895 -114.41545 -97.24033 -.501 258.46582 338.7417)" gradientUnits="userSpaceOnUse" spreadMethod="pad" xlink:href="#L"/><linearGradient id="N" x1="0" x2="1" y1="0" y2="0" gradientTransform="matrix(-30.28182 78.32507 78.32507 30.28182 315.58105 253.38281)" gradientUnits="userSpaceOnUse" spreadMethod="pad"><stop offset="0" stop-color="#231f20"/><stop offset="1" stop-color="#fff"/></linearGradient><linearGradient id="f" x1="0" x2="1" y1="0" y2="0" gradientTransform="scale(-86.4276 86.4276) rotate(84.912887 -3.4364996 -.4798147)" gradientUnits="userSpaceOnUse" spreadMethod="pad"><stop offset="0" stop-color="#808285"/><stop offset="1" stop-color="#a7a9ac"/></linearGradient><linearGradient id="M" x1="0" x2="1" y1="0" y2="0" gradientTransform="scale(85.84188 -85.84188) rotate(41.902015 5.47901795 .97250871)" gradientUnits="userSpaceOnUse" spreadMethod="pad"><stop offset="0" stop-color="#fff"/><stop offset="1" stop-color="#231f20"/></linearGradient><linearGradient id="o" x1="0" x2="1" y1="0" y2="0" gradientTransform="matrix(162.75 0 0 -162.75 179.70898 346.29297)" gradientUnits="userSpaceOnUse" spreadMethod="pad"><stop offset="0" stop-color="#696a6d"/><stop offset=".478531" stop-color="#a3a5a8"/><stop offset="1" stop-color="#4d4d4f"/></linearGradient><linearGradient id="r" x1="0" x2="1" y1="0" y2="0" gradientTransform="matrix(41.03274 18.86144 18.86144 -41.03274 216.08203 346.61426)" gradientUnits="userSpaceOnUse" spreadMethod="pad"><stop offset="0" stop-color="#7d7e81"/><stop offset="1" stop-color="#231f20"/></linearGradient><linearGradient id="u" x1="0" x2="1" y1="0" y2="0" gradientTransform="matrix(13.95761 29.90239 29.90239 -13.95761 199.79492 311.26221)" gradientUnits="userSpaceOnUse" spreadMethod="pad"><stop offset="0" stop-color="#353435"/><stop offset="1" stop-color="#7d7e81"/></linearGradient><linearGradient id="x" x1="0" x2="1" y1="0" y2="0" gradientTransform="matrix(232.55713 0 0 -232.55713 33.937012 103.92773)" gradientUnits="userSpaceOnUse" spreadMethod="pad"><stop offset="0" stop-color="#333132"/><stop offset="1" stop-color="#58595b"/></linearGradient><linearGradient id="A" x1="0" x2="1" y1="0" y2="0" gradientTransform="matrix(90.2456 0 0 -90.2456 15.729492 304.21729)" gradientUnits="userSpaceOnUse" spreadMethod="pad"><stop offset="0" stop-color="#414042"/><stop offset="1" stop-color="#58595b"/></linearGradient><linearGradient id="D" x1="0" x2="1" y1="0" y2="0" gradientTransform="matrix(102.50244 0 0 -102.50244 30.268066 255.45117)" gradientUnits="userSpaceOnUse" spreadMethod="pad"><stop offset="0" stop-color="#58595b"/><stop offset="1" stop-color="#333132"/></linearGradient><linearGradient id="G" x1="0" x2="1" y1="0" y2="0" gradientTransform="matrix(263.94141 0 0 -263.94141 128.26758 448.85352)" gradientUnits="userSpaceOnUse" spreadMethod="pad"><stop offset="0" stop-color="#58595b"/><stop offset="1" stop-color="#231f20"/></linearGradient><linearGradient id="J" x1="0" x2="1" y1="0" y2="0" gradientTransform="matrix(279.45801 0 0 -279.45801 208.2041 136.14453)" gradientUnits="userSpaceOnUse" spreadMethod="pad"><stop offset="0" stop-color="#58595b"/><stop offset="1" stop-color="#333132"/></linearGradient><linearGradient id="aU" x1="0" x2="1" y1="0" y2="0" gradientTransform="scale(85.84188 -85.84188) rotate(41.902015 5.47901795 .97250871)" gradientUnits="userSpaceOnUse" spreadMethod="pad" xlink:href="#M"/><linearGradient id="aZ" x1="0" x2="1" y1="0" y2="0" gradientTransform="matrix(-30.28182 78.32507 78.32507 30.28182 315.58105 253.38281)" gradientUnits="userSpaceOnUse" spreadMethod="pad" xlink:href="#N"/><mask id="bc" width="1" height="1" x="0" y="0" maskUnits="userSpaceOnUse"><g clip-path="url(#a)"><path d="M183.878 405.657h122.998v-63.5H183.878v63.5z"/><g clip-path="url(#b)"><path fill="url(#c)" d="M306.876 364.491s-6.917 1-15.5-3.166c0 0-8.167-1.917-12.25.583 0 0-30.75 17.916-67.416-4.417 0 0-18.916-7.666-27.832-15.333 0 0 46.664 63.499 122.998 22.333"/></g></g></mask><mask id="aX" width="1" height="1" x="0" y="0" maskUnits="userSpaceOnUse"><g clip-path="url(#d)"><path d="M284.348 343.158h103.695V225.435H284.348v117.723z"/><g clip-path="url(#e)"><path fill="url(#f)" d="M310.584 343.158s35.125-45-10.813-86c0 0-13.062-7.75-15.423-31.722 0 0 103.695 48.722 26.236 117.722"/></g></g></mask><mask id="aS" width="1" height="1" x="0" y="0" maskUnits="userSpaceOnUse"><g clip-path="url(#g)"><use xlink:href="#reuse-2"/><g clip-path="url(#h)"><path fill="url(#i)" d="M176.834 320.471s-5.875-37.75 11.25-49.063c0 0 16.5-53.125 84.625-27.812 0 0-11-11.313-12.75-21.063 0 0-34.75-5.625-59.25 10.75 0 0-36.375 24.625-23.875 87.188"/></g></g></mask><mask id="aP" width="1" height="1" x="0" y="0" maskUnits="userSpaceOnUse"><g clip-path="url(#j)"><path d="M161.77 381.625h187.25V208.5H161.77v173.125z"/><g clip-path="url(#k)"><path fill="url(#l)" d="M185.145 240.751s24.25-30.086 70.166-30.041c0 0 34.084-2.209 64.177 24.603 0 0 26.91 21.188 26.91 59.98 0 0 2.622 28.832-22.753 55.957 0 0-25 28.567-69.079 28.545 0 0-36.046 1.83-67.046-27.42 0 0-24.064-21.75-24.036-57.791 0 0-1.714-28.958 21.661-53.833"/></g></g></mask><mask id="aN" width="1" height="1" x="0" y="0" maskUnits="userSpaceOnUse"><g clip-path="url(#m)"><use xlink:href="#reuse-5"/><g clip-path="url(#n)"><path fill="url(#o)" d="M342.459 312.908s-12.5 61-81.375 66.5c0 0-49.375 6-81.375-38.626 0 0 27.833 33.543 76.834 34.958 0 0 65.333 2.918 85.916-62.832"/></g></g></mask><mask id="aL" width="1" height="1" x="0" y="0" maskUnits="userSpaceOnUse"><g clip-path="url(#p)"><path d="M212.584 365.283h46.813V339.72h-46.813v25.563z"/><g clip-path="url(#q)"><path fill="url(#r)" d="M259.396 363.346s-18.312 1.937-29.687-4.125c0 0-9.313-5.188-15.063-14.125 0 0-2.062-5.375 3.063-4.125 0 0 8 7.312 17.125 12.875 0 0 10.062 6.187 24.562 9.5"/></g></g></mask><mask id="aJ" width="1" height="1" x="0" y="0" maskUnits="userSpaceOnUse"><g clip-path="url(#s)"><use xlink:href="#reuse-8"/><g clip-path="url(#t)"><path fill="url(#u)" d="M222.21 356.075s-29.5-4.584-33-54.333c0 0-.081-18.999 6.833-22.499 0 0 3.834-1.167 3.417 6.333 0 0-1.083 10.501.917 28.418 0 0 2.083 26.666 21.833 42.081"/></g></g></mask><mask id="aG" width="1" height="1" x="0" y="0" maskUnits="userSpaceOnUse"><g clip-path="url(#v)"><path d="M33.937 174.185h232.557V30.992H33.937v143.193z"/><g clip-path="url(#w)"><path fill="url(#x)" d="M33.937 174.185s19.959-51.527 65.609-87.589c0 0 44.475-40 120.363-51.773 0 0 26.921-3.331 34.835 1.335 0 0 8.584.583 11.75 3.333 0 0-2.065.331-4.813.87 0 0-27.303-9.37-67.785 16.11 0 0-14.685 8.353-29.537 23.164 0 0-67.213 10.461-130.422 94.55"/></g></g></mask><mask id="aE" width="1" height="1" x="0" y="0" maskUnits="userSpaceOnUse"><g clip-path="url(#y)"><path d="M11.875 436.902h94.1V171.533h-94.1v265.369z"/><g clip-path="url(#z)"><path fill="url(#A)" d="M20.875 246.283s-5.146 31.5 6.75 69.5c0 0 16.5 62.75 60.5 102.75 0 0 8.474 6.775 17.85 18.368.001.001-53.184-30.281-82.85-120.118 0 0-11.25-26.25-6-70.75 0 0 2.5-39.75 20.625-74.5 0 0-10.973 26.628-16.875 74.75"/></g></g></mask><mask id="aC" width="1" height="1" x="0" y="0" maskUnits="userSpaceOnUse"><g clip-path="url(#B)"><path d="M27.084 421.533h107.625V87.235H27.084v334.298z"/><g clip-path="url(#C)"><path fill="url(#D)" d="M100.334 421.533s-50.625-40.375-66.125-117.75c0 0-7.125-36.5-2.215-66.875 0 0 10.965-90.25 89.715-145.75 0 0 5.833-3.923 9.613-.155 0 0 3.387 4.03-.197 7.905 0 0-5.291 6.375-26.083 21.077 0 0-58.583 46.798-67.084 132.346 0 0-2.374 26.077 1.001 47.452 0 0 6.5 68.125 61.375 121.75"/></g></g></mask><mask id="ap" width="1" height="1" x="0" y="0" maskUnits="userSpaceOnUse"><g clip-path="url(#E)"><use xlink:href="#reuse-13"/><g clip-path="url(#F)"><path fill="url(#G)" d="M128.513 435.58s-.245 1.955-.245 3.91c0 0 55.366 37.667 103.273 40 0 0 19.501 1.585 40.334-.582 0 0 100.419-9.749 120.334-61.25 0 0-46.745 46.001-117.748 53.919 0 0-19.843 2.416-47.604-.002 0 0-47.723-4.168-98.344-35.995"/></g></g></mask><mask id="ag" width="1" height="1" x="0" y="0" maskUnits="userSpaceOnUse"><g clip-path="url(#H)"><path d="M208.204 233.913h279.458V37.096H208.204v196.817z"/><g clip-path="url(#I)"><path fill="url(#J)" d="M208.204 66.201s25.817-18.793 54.966-26.11c0 0 1.664-.402 3.324-.6 0 0 16.684-2.395 28.666-.166 0 0 167.584 21.083 192.502 194.588 0 0-77.287-190.422-279.458-167.712"/></g></g></mask></defs><path fill="#4d4a49" d="M117.2321 82.9685S24.4196 150.62225 15.0446 268.74975c0 0-3.125 26.975 0 53.85 0 0 15.20875 215.095 254.58 255.94375 0 0 33.65 4.165 43.545-1.66875 0 0 10.72875-.72875 14.6875-4.16625 0 0 21.04125 3.4375 35.8325.2075 0 0 209.48-26.35375 240.62625-243.235 0 0 3.85375-22.38875.9375-54.47125 0 0-5-80.00375-54.7925-139.38 0 0-1.25-.4225-2.29125-.4225 0 0-53.96-104.57375-204.79125-120.51125 0 0-27.50375-3.4375-66.67-.105 0 0-58.96 3.75125-119.16875 39.1675 0 0-2.5 3.33375-2.5 16.04125 0 0-4.64875-2.1875-13.63375-.15625 0 0-11.0925 2.3425-24.17375 13.125"/><g clip-path="url(#V)" opacity=".30000299" transform="matrix(1.25 0 0 -1.25 -5.2612 622.0725)"><path fill="#fff" d="M168.5435 131.6211s-2.834 9.287 5.166 16.162c0 0 44 35 79.5 61.875 0 0 31.138-2.5 55.269 17.158 0 0-24.131-16.033-52.024-16.144 0 0-88.495-.006-92.998 85.267 0 0 .753 20.719 8.935 35.474 0 0 1.828 4.495-5.107 13.002 0 0-29.103 80.243-36.644 77.118 0 0-11.645-5.625-7.556-28.875 0 0 1.673-21.792 19.625-39.75 0 0 15-17.875 19.375-32.437 0 0-1.767-11.813-1.875-25.229 0 0-1.125-63.584 66.125-84.576 0 0-2.871-1.883-4.693-3.883 0 0-82.307-54.875-76.525-70.183 0 0 5.093-12.692 14.247-21.066 0 0 16.221-1.382 9.18 16.087"/></g><g clip-path="url(#W)" opacity=".30000299" transform="matrix(1.25 0 0 -1.25 -5.2612 622.0725)"><path fill="#fff" d="M457.5693 300.6567s-3.61 12.751-6.146 22.311c0 0 1.161 2.565 3.763.043 0 0 3.648-9.853 2.383-22.354"/></g><g clip-path="url(#X)" opacity=".30000299" transform="matrix(1.25 0 0 -1.25 -5.2612 622.0725)"><path fill="#fff" d="M440.7783 326.1772s1.966-5.894 2.556-10.644c0 0 .375-6.625-5.75-4.625 0 0-28.5 17.552-100.911 22.48 0 0 1.036-10.42 15.098-13.673 0 0 99.652-29.932 101.448-24.035 0 0-1.26 14.978-6.307 28.094 0 0-5.203 7.638-6.134 2.403"/></g><path fill="url(#Y)" d="M465.456 333.45s2.065-6.354-4.33-8.622c0 0-2.754-1.165-6.004-1.248 0 0 1.987-17.384 3.167-30.499 0 0-34.166 18.999-84.167 28.166 0 0-18.667 2.082-21.084 10.165 0 0-3.169-5.832-2.168-9.666 0 0 2.749-4.082 4.082-20.082 0 0 .667-6.578 0-16.245 0 0-4.91-83.761-98.837-85.836 0 0-43.742-33.925-89.242-69.259 0 0-13.666-9.998-4.166-24.332 0 0 42.499-56.333 103.787-66.501 0 0 16.684-2.396 28.666-.165 0 0 167.584 21.082 192.502 194.587 0 0 3.082 17.911.75 43.577 0 0-4 64.003-43.834 111.504 0 0-1 .338-1.834.338 0 0 13.048-21.506 22.712-55.882" transform="matrix(1.25 0 0 -1.25 -5.2612 622.0725)"/><g clip-path="url(#Z)" opacity=".60000598" transform="matrix(1.25 0 0 -1.25 -5.2612 622.0725)"><path fill="#fff" d="M311.3018 42.5391s-18.155 7.994-27.218 36.619c0 0 32.5 4.875 49 15.875 0 0 15.375-23.75 11.093-42.043 0 0-.576-.225-1.117-.435 0 0 4.149 15.166-9.851 40.478 0 0-13.062-10.562-47.25-14.687 0 0 6.125-23.75 26.373-35.554 0 0-.578-.143-1.03-.253"/></g><g clip-path="url(#aa)" opacity=".19999701" transform="matrix(1.25 0 0 -1.25 -5.2612 622.0725)"><path d="M310.4023 42.3213s-23.256 13.087-28.756 38.712c0 0 39.813 6.75 51 15.125 0 0 14.625-17.938 13.096-42.548 0 0-.813-.322-1.349-.535 0 0 2.128 20.833-12.059 40.02 0 0-14.688-8.062-48.125-13.562 0 0 3.375-21.063 27.592-36.872 0 0-.876-.214-1.399-.34"/></g><g clip-path="url(#ab)" opacity=".60000598" transform="matrix(1.25 0 0 -1.25 -5.2612 622.0725)"><path fill="#fff" d="M371.3496 65.4961s15.422 11.537-9.703 44.662c0 0 98.062 41.75 100.812 158.25 0 0 24.399 0 24.399-39.733 0 0-.142-.872-.364-2.19 0 0-.952 37.673-23.118 40.256 0 0 7.333-101.083-99.334-157.333 0 0 23.792-28.875 9.887-42.518 0 0-1.252-.682-2.579-1.394"/></g><g clip-path="url(#ac)" opacity=".19999701" transform="matrix(1.25 0 0 -1.25 -5.2612 622.0725)"><path d="M370.6582 65.1289s13.551 12.654-11.824 43.904c0 0 101.5 42.5 102.5 161.5 0 0 23.5 2.125 26.328-36.62 0 0-.217-1.48-.569-3.776 0 0-.634 35.021-23.884 38.646 0 0 5-107.125-102.125-160.25 0 0 22.187-25.75 11.303-42.481 0 0-.788-.423-1.729-.923"/></g><g clip-path="url(#ad)" opacity=".39999396" transform="matrix(1.25 0 0 -1.25 -5.2612 622.0725)"><path fill="#fff" d="M478.3242 307.4082s-7.353 36.896-22.026 62.807c0 0 17.673-25.159 22.026-62.807"/></g><g clip-path="url(#ae)" opacity=".39999396" transform="matrix(1.25 0 0 -1.25 -5.2612 622.0725)"><path fill="#fff" d="M353.3047 328.4604s8.329-11.576 37.831-15.409c0 0 4-.25 12.086-1.581 0 0 25.415-3.002 66-27.916 0 0-31.253 23.914-65.419 29.248 0 0-38 6.582-50.498 15.658"/></g><g clip-path="url(#af)" opacity=".60000598" transform="matrix(1.25 0 0 -1.25 -5.2612 622.0725)"><path fill="#fff" d="M374.1221 321.2466s-18.667 2.083-21.084 10.166c0 0-.36-1.958.505-3.419 0 0 4.541-6.71 6.167-30.834 0 0 .833-36.167-23.353-60.426 0 0-8.856-12.867-23.794-22.024 0 0-20.434-14.591-56.448-15.127 0 0-43.742-33.925-89.242-69.258 0 0-13.666-9.999-4.166-24.332 0 0 40.968-54.303 100.463-65.902 0 0-55.04 11.143-98.794 68.502 0 0-3.496 5.215 1.083 11.399 0 0 39.419 32.744 72.667 59.363 0 0 70.837-13.298 116.674 48.203 0 0 22.749 28.165 22.583 67.498 0 0 .001 18.085-3.261 26.191"/></g><g mask="url(#ag)" transform="matrix(1.25 0 0 -1.25 -5.2612 622.0725)"><g clip-path="url(#ah)"><path fill="#fff" d="M208.2041 66.2012s25.817-18.793 54.966-26.11c0 0 1.664-.402 3.324-.6 0 0 16.684-2.395 28.666-.166 0 0 167.584 21.083 192.502 194.588 0 0-77.287-190.422-279.458-167.712"/></g></g><g clip-path="url(#ai)" opacity=".25" transform="matrix(1.25 0 0 -1.25 -5.2612 622.0725)"><path d="M353.0381 331.4126s-3.169-5.833-2.169-9.666c0 0 2.75-4.083 4.083-20.083 0 0 .667-6.578 0-16.245 0 0-1.494-25.483-18.595-48.685 0 0 22.52 19.927 23.353 60.426 0 0-1.167 22-6.167 30.834 0 0-.834 1.165-.505 3.419"/></g><g clip-path="url(#aj)" opacity=".5" transform="matrix(1.25 0 0 -1.25 -5.2612 622.0725)"><path d="M451.4229 372.2085s9.161-20.332 14.033-38.758c0 0 2.081-6.37-4.33-8.623 0 0-2.754-1.164-6.004-1.248 0 0 1.988-17.383 3.167-30.499 0 0 6.171-3.38 13.296-8.797 0 0 5.468.672 5.291 7.628 0 0-4.416 45.664-25.453 80.297"/></g><g clip-path="url(#ak)" opacity=".25" transform="matrix(1.25 0 0 -1.25 -5.2612 622.0725)"><path d="M479.6689 300.1797s-9.126 58.98-36.925 89.152c0 0 3.886-6.264 8.679-17.123 0 0 19.099-28.55 25.453-80.298 0 0 .583-6.393-5.291-7.627 0 0 6.789-5.14 9.539 3.11 0 0 0 5.766-1.455 12.786"/></g><path fill="url(#al)" d="M225.602 485.784s-47.194-2.96-95.361-31.293c0 0-2.001-2.667-2.001-12.833 0 0-.922-29.876 21.581-69.538 0 0 12.913-17.756 10.497-26.588 0 0 2.583-1.668 6.249-2.084 0 0 26.584 38.333 61.167 45.833 0 0 16.415 5.167 40.164.667 0 0 23.25-1.918 47.416-20.501 0 0 8.92-6.832 17.087-18.082 0 0 7.003-10.005 24.003-10.005 0 0 36.088-1.836 74.67-12.503 0 0 10.588-2.416 15.838-5.083 0 0 9.25-2.584 16.834 1.499 0 0 3.75 1.834 1.667 9.584 0 0-8.027 30.457-22.669 54.475 0 0-43.14 83.618-163.804 96.367 0 0-9.986 1.248-26.077 1.248-7.8 0-17.031-.293-27.261-1.163" transform="matrix(1.25 0 0 -1.25 -5.2612 622.0725)"/><g clip-path="url(#am)" opacity=".60000598" transform="matrix(1.25 0 0 -1.25 -5.2612 622.0725)"><path fill="#fff" d="M130.2407 454.4907s-2-2.667-2-12.833c0 0-.923-29.875 21.581-69.538 0 0 12.913-17.755 10.496-26.588 0 0 25.141 46.709 77.891 53.501 0 0 15.084 2.125 31.125 0 0 0 40.125-2.375 69.982-43.375 0 0 2.331-4.562 13.268-5.375 0 0 33.75-1.125 72.125-10.875 0 0 18.035-4.062 31.375-12 0 0 3.625-2.062 8.944-.847 0 0 1.994 2.504.384 8.296 0 0-8.025 30.458-22.668 54.475 0 0-1.999 3.875-6.339 10.084 0 0 13.969-21.042 25.529-62.258 0 0 3.094-9.228-3.726-7.667 0 0-36.829 16.802-94.499 22.721 0 0-28.165 56.446-92.166 61.613 0 0-17.5 3.166-33.666-.334 0 0-49.833-4.333-81.167-48.5 0 0-21.948 34.786-25.5 67.167 0 0-1.5 10.284-.969 22.333"/></g><g clip-path="url(#an)" opacity=".19999701" transform="matrix(1.25 0 0 -1.25 -5.2612 622.0725)"><path fill="#fff" d="M143.3755 403.8237s4 10 0 20c0 0-2.562 8.334-12.166 8.334 0 0 4.314-20.417 9.604-29.667 0 0 2.562-4.334 2.562 1.333"/></g><g clip-path="url(#ao)" opacity=".19999701" transform="matrix(1.25 0 0 -1.25 -5.2612 622.0725)"><path fill="#fff" d="M172.709 442.4414s2.122 1.261 2.903 3.594c0 .001 1.511 3-.364 5.875 0 0-1.875 1.875-7.539.247 0 0-8.361-1.667-18.544-9 0 0-2.167-1.082-3.208-4.248 0 0-1.084-2.125-.006-6.752 0 0 1.922-8.373 10.758-2.667"/></g><g mask="url(#ap)" transform="matrix(1.25 0 0 -1.25 -5.2612 622.0725)"><g clip-path="url(#aq)"><path fill="#fff" d="M128.5127 435.5801s-.245 1.955-.245 3.91c0 0 55.367 37.667 103.273 40 0 0 19.502 1.585 40.334-.582 0 0 100.419-9.749 120.334-61.25 0 0-46.745 46.001-117.748 53.919 0 0-19.843 2.416-47.604-.002 0 0-47.723-4.168-98.344-35.995"/></g></g><g clip-path="url(#ar)" opacity=".25" transform="matrix(1.25 0 0 -1.25 -5.2612 622.0725)"><path d="M160.3179 345.5313s2.583-1.667 6.25-2.083c0 0 27.185 38.023 61.167 45.833 0 0 17.683 5.002 40.164.667 0 0 23.25-1.918 47.416-20.5 0 0 8.92-6.834 17.086-18.084 0 0 7.003-10.004 24.003-10.004 0 0 36.088-1.836 74.67-12.503 0 0 10.588-2.417 15.838-5.083 0 0 9.578-2.585 16.834 1.5 0 0 .744.431 1.281 1.286 0 0-4.459-1.324-8.943.848 0 0-14.5 8.125-31.375 12 0 0-36.5 9.5-72.125 10.875 0 0-10.125.375-13.268 5.375 0 0-26.357 38.5-69.982 43.375 0 0-11.625 2.125-31.125 0 0 0-46.875-3-77.891-53.502"/></g><path fill="url(#as)" d="M117.334 441.783s-9.146-1.999-19.339-10.499c0 0-74.25-54.124-81.75-148.626 0 0-2.5-21.58 0-43.08 0 0 12.166-172.077 203.664-204.755 0 0 26.92-3.331 34.835 1.335 0 0 8.584.584 11.75 3.333 0 0-21.575 2.747-46.133 16.917 0 0-13.402.5-23.184 5.282 0 0-30.437 18.968-55.426 54.64 0 0-3.209 6.493-.001 14.703 1 1.625 5.625 17.625 79.5 70.751 0 0 .627 3.035.293 7.868 0 0-49.999 13.168-62.043 67.631 0 0-4.539 25.085-2.789 41.21 0 0-8.292 20.915-30.001 49.832 0 0-8.333 9.001-14.332 31.502 0 0-4.167 16.833-2.378 25.331 0 0 1.544 8.669 8.125 11 0 0 4.282 1.914 10.408-.586l-.293 6.086s-1.588.816-4.985.816c-1.577 0-3.544-.176-5.921-.691" transform="matrix(1.25 0 0 -1.25 -5.2612 622.0725)"/><g clip-path="url(#at)" opacity=".25" transform="matrix(1.25 0 0 -1.25 -5.2612 622.0725)"><path d="M134.7617 357.1118s-4.532 6.713-8.051 11.213c0 0-8.669 9.625-14.333 31.502 0 0-4.167 16.834-2.378 25.331 0 0 1.544 8.669 8.125 11 0 0 4.283 1.914 10.408-.586l-.292 6.086s-4.407 2.125-10.907-.625c0 0-8.859-3.703-11.25-14.875 0 0-1.625-6.25 0-13.375 0 0 6.125-37.125 28.678-55.671"/></g><g clip-path="url(#au)" opacity=".25" transform="matrix(1.25 0 0 -1.25 -5.2612 622.0725)"><path d="M221.25 201.7832s.627 3.036.293 7.869c0 0-50 13.168-62.043 67.631 0 0-4.539 25.084-2.789 41.209 0 0-1.913 4.448-5.254 11.03 0 0-5.913-28.533 1.254-53.529 0 0 10.498-50.835 68.539-74.21"/></g><g clip-path="url(#av)" opacity=".25" transform="matrix(1.25 0 0 -1.25 -5.2612 622.0725)"><path d="M221.25 201.7832c-73.875-53.125-78.5-69.125-79.5-70.75-3.208-8.21 0-14.703 0-14.703 24.99-35.672 55.428-54.641 55.428-54.641 14.281-10.943 31.813-15.843 31.813-15.843 15.801-4.6 26.897-4.105 26.897-4.105 3.118-.864 5.793-1.38 5.793-1.38s-27.16-8.766-67.785 16.109c0 0-33.062 18.188-60.875 61.563 0 0-4.562 6.25 0 12.25 0 0 14.313 24.875 88.229 71.5"/></g><g><g clip-path="url(#aw)" opacity=".5" transform="matrix(1.25 0 0 -1.25 -5.2612 622.0725)"><path d="M255.8877 41.7412s-16.804 3.911-35.527 14.666c0 0-13.402.501-23.183 5.282 0 0 24.969-19.948 58.71-19.948"/></g></g><g><g clip-path="url(#ax)" opacity=".60000598" transform="matrix(1.25 0 0 -1.25 -5.2612 622.0725)"><path fill="#fff" d="M231.376 40.8203s-51.666 7.005-97.166 73.172c0 0-7.667 3.169 11.833-18.664 0 0 45.333-51.334 85.333-54.508"/></g></g><g><g clip-path="url(#ay)" opacity=".5" transform="matrix(1.25 0 0 -1.25 -5.2612 622.0725)"><path fill="#fff" d="M239.1875 39.4785s9.557-3.82 15.557-3.32c0 0 10.417 1.153 11.75 3.333 0 0-2.164.293-4.814.87 0 0-8.84-2.703-22.493-.883"/></g></g><g><g clip-path="url(#az)" opacity=".60000598" transform="matrix(1.25 0 0 -1.25 -5.2612 622.0725)"><path fill="#fff" d="M119.811 442.2246s1.757.293 3.897.215c-3.171.062-6.374-1.406-6.374-1.406-9.672-4.75-11.25-14.875-11.25-14.875-.797-3.344-.721-6.75-.721-6.75.002-3.782.721-6.625.721-6.625 8.062-41.125 28.678-55.671 28.678-55.672 0 0-28.72 22.838-31.463 63.23 0 0-.387 5.504.66 8.567 0 0 4.203 11.64 15.852 13.316"/></g></g><g><g clip-path="url(#aA)" opacity=".60000598" transform="matrix(1.25 0 0 -1.25 -5.2612 622.0725)"><path fill="#fff" d="M164.6641 248.5342s16.482-30.876 56.586-46.751c0 0-9.697-6.344-16.728-10.845 0 0-58.813 21.97-69.438 90.22 0 0-2.25 13 0 30.875 0 0 1.75 15.625 8.759 31.005 0 0 4.098-7.015 7.613-13.516 0 0-1.435-7.708-1.881-14.678 0 0-.616-5.623-.272-16.061 0 0-.532-25.437 15.361-50.249"/></g></g><g><g clip-path="url(#aB)" opacity=".19999701" transform="matrix(1.25 0 0 -1.25 -5.2612 622.0725)"><path fill="#fff" d="M101.9595 411.7412s-7.833-.833-19.917-19.833c0 0-5.416-10.083-2.25-23.417 0 0 .334-6.916 10.084-7.5 0 0 1.253 0 2.333 1.75 0 0 3.5 4.667 11.25 6.5 0 0 3 .917 6.167.167 0 0 2.032-.75 2-2.5 0 0-.417-2.5 5.583-4.25 0 0 2-.75 5.083-1.083 0 0 3.917.25-1.75 5.75 0 0-17.999 16.835-17.999 37.416 0 0 .916 7-.584 7"/></g></g><g><g mask="url(#aC)" transform="matrix(1.25 0 0 -1.25 -5.2612 622.0725)"><g clip-path="url(#aD)"><path fill="#fff" d="M100.334 421.5332s-50.625-40.375-66.125-117.75c0 0-7.125-36.5-2.215-66.875 0 0 10.965-90.25 89.715-145.75 0 0 5.833-3.923 9.613-.155 0 0 3.387 4.03-.196 7.905 0 0-5.292 6.375-26.084 21.077 0 0-58.583 46.798-67.083 132.346 0 0-2.375 26.077 1 47.452 0 0 6.5 68.125 61.375 121.75"/></g></g></g><g><g mask="url(#aE)" transform="matrix(1.25 0 0 -1.25 -5.2612 622.0725)"><g clip-path="url(#aF)"><path fill="#fff" d="M20.8755 246.2832s-5.146 31.5 6.75 69.5c0 0 16.5 62.75 60.5 102.75 0 0 8.474 6.775 17.85 18.368 0 .001-53.184-30.282-82.85-120.118 0 0-11.25-26.25-6-70.75 0 0 2.5-39.75 20.625-74.5 0 0-10.974 26.628-16.875 74.75"/></g></g></g><g><g mask="url(#aG)" transform="matrix(1.25 0 0 -1.25 -5.2612 622.0725)"><g clip-path="url(#aH)"><path fill="#fff" d="M33.937 174.1846s19.959-51.526 65.609-87.589c0 0 44.475-40 120.363-51.772 0 0 26.921-3.331 34.835 1.335 0 0 8.584.583 11.75 3.333 0 0-2.065.331-4.813.87 0 0-27.303-9.37-67.785 16.109 0 0-14.685 8.354-29.537 23.164 0 0-67.213 10.461-130.422 94.55"/></g></g></g><g><path fill="url(#aI)" d="M187.52 352.375s-24.064-21.749-24.036-57.791c0 0-1.714-28.958 21.66-53.833 0 0 24.251-30.086 70.166-30.041 0 0 34.084-2.209 64.178 24.603 0 0 26.91 21.188 26.91 59.98 0 0 2.621 28.832-22.753 55.957 0 0-25.001 28.567-69.078 28.545 0 0-.447.022-1.282.022-6.674 0-38.213-1.445-65.765-27.442" transform="matrix(1.25 0 0 -1.25 -5.2612 622.0725)"/></g><g><g mask="url(#aJ)" transform="matrix(1.25 0 0 -1.25 -5.2612 622.0725)"><g clip-path="url(#aK)"><path fill="#fff" d="M222.21 356.0747s-29.5-4.583-33-54.333c0 0-.081-18.999 6.833-22.499 0 0 3.834-1.167 3.417 6.333 0 0-1.083 10.501.917 28.418 0 0 2.083 26.666 21.833 42.081"/></g></g></g><g><g mask="url(#aL)" transform="matrix(1.25 0 0 -1.25 -5.2612 622.0725)"><g clip-path="url(#aM)"><path fill="#fff" d="M259.3965 363.3457s-18.313 1.938-29.688-4.125c0 0-9.312-5.188-15.062-14.125 0 0-2.063-5.375 3.062-4.125 0 0 8 7.312 17.125 12.875 0 0 10.063 6.187 24.563 9.5"/></g></g></g><g><g mask="url(#aN)" transform="matrix(1.25 0 0 -1.25 -5.2612 622.0725)"><g clip-path="url(#aO)"><path fill="#fff" d="M342.459 312.9082s-12.5 61-81.375 66.5c0 0-49.375 6-81.375-38.626 0 0 27.833 33.543 76.834 34.958 0 0 65.333 2.918 85.916-62.832"/></g></g></g><g><g mask="url(#aP)" transform="matrix(1.25 0 0 -1.25 -5.2612 622.0725)"><g clip-path="url(#aQ)"><path fill="url(#aR)" d="M185.145 240.751s24.25-30.086 70.166-30.041c0 0 34.084-2.209 64.177 24.603 0 0 26.91 21.188 26.91 59.98 0 0 2.622 28.832-22.753 55.957 0 0-25 28.567-69.079 28.545 0 0-36.046 1.83-67.046-27.42 0 0-24.064-21.75-24.036-57.791 0 0-1.714-28.958 21.661-53.833"/></g></g></g><g><g mask="url(#aS)" transform="matrix(1.25 0 0 -1.25 -5.2612 622.0725)"><g clip-path="url(#aT)"><path fill="url(#aU)" d="M176.834 320.471s-5.875-37.75 11.25-49.063c0 0 16.5-53.125 84.625-27.812 0 0-11-11.313-12.75-21.063 0 0-34.75-5.625-59.25 10.75 0 0-36.375 24.625-23.875 87.188"/></g></g></g><g><g clip-path="url(#aV)" opacity=".14999402" transform="matrix(1.25 0 0 -1.25 -5.2612 622.0725)"><path fill="#fff" d="M182.7368 275.4937s2.597-3.117 5.347-4.085c0 0 16.5-53.125 84.625-27.813 0 0-2.623-2.697-5.511-6.593 0 0-66.989-24.677-84.461 38.491"/></g></g><g><g clip-path="url(#aW)" opacity=".39999396" transform="matrix(1.25 0 0 -1.25 -5.2612 622.0725)"><path fill="#fff" d="M176.834 320.4707s-5.875-37.75 11.25-49.063c0 0-17.875 5.5-11.25 49.063"/></g></g><g><g mask="url(#aX)" transform="matrix(1.25 0 0 -1.25 -5.2612 622.0725)"><g clip-path="url(#aY)"><path fill="url(#aZ)" d="M310.584 343.158s35.125-45-10.813-86c0 0-13.062-7.75-15.423-31.722 0 0 103.695 48.722 26.236 117.722"/></g></g></g><g><g clip-path="url(#ba)" opacity=".14999402" transform="matrix(1.25 0 0 -1.25 -5.2612 622.0725)"><path fill="#fff" d="M326.7637 325.7793s-5.93 8.316-16.18 17.379c0 0 41.25-45.188-12.437-88.875 0 0 44.645 5.458 28.617 71.496"/></g></g><g><g clip-path="url(#bb)" opacity=".39999396" transform="matrix(1.25 0 0 -1.25 -5.2612 622.0725)"><path fill="#fff" d="M310.584 343.1582s35.125-45-10.813-86c0 0 48.938 35.25 10.813 86"/></g></g><g><g mask="url(#bc)" transform="matrix(1.25 0 0 -1.25 -5.2612 622.0725)"><g clip-path="url(#bd)"><path d="M306.876 364.4912s-6.917 1-15.5-3.167c0 0-8.167-1.916-12.25.584 0 0-30.75 17.916-67.416-4.417 0 0-18.916-7.667-27.832-15.333 0 0 46.664 63.499 122.998 22.333"/></g></g></g><g><g clip-path="url(#be)" opacity=".39999396" transform="matrix(1.25 0 0 -1.25 -5.2612 622.0725)"><path fill="#fff" d="M279.126 361.9077s-30.75 17.917-67.416-4.417c0 0 31.249 23.917 67.416 4.417"/></g></g></svg>