<svg xmlns="http://www.w3.org/2000/svg" viewBox="0 0 141.66559 145.8324"><defs/><path fill="#37a5e2" d="M135.62175 5.41341c-10.24875-9.83625-31.845-5.2775-55.63125 9.6675-2.44375-.25125-4.92375-.395-7.44125-.395-35.895 0-64.995 26.3475-64.995 58.8475 0 .30875.02.6125.02625.92125 14.645-23.25 34.29125-39.35125 52.1525-44.4975-5.73375 4.825-11.4475 10.165-17.01875 15.97125-14.085 14.675-25.15 30.1225-32.46625 44.3775-11.26875 21.9575-13.61375 41.07625-4.19625 50.115 10.10125 9.695 31.23 5.4 54.61125-9.04125 3.85625.645 7.82375.99875 11.88625.99875 2.91125 0 5.775-.17875 8.58375-.515 25.62125-3.06375 46.53-19.63875 53.7175-41.5625h-43.16c-2.6625 7.9375-10.145 13.66375-18.97875 13.66375-11.06125 0-20.02875-8.9675-20.02875-20.03v-2.0175h84.1925c.43125-2.73875.6675-5.5375.6675-8.38375 0-25.715-18.2225-47.5625-43.6075-55.57125 17.81875-10.0025 33.01375-12.75625 40.33875-5.7275 4.475 4.295 5.4175 11.68 3.36375 20.93h2.37125c2.83-12.1 1.6225-21.9825-4.3875-27.75125zM56.228 130.50591c-18.40875 10.6375-34.1925 13.71375-41.705 6.505-6.53125-6.2675-5.54125-19.11375 1.31375-34.7375 8.55375 13.80625 23.06625 24.17625 40.39125 28.2325zm-3.52125-67.22125c.25-10.84375 9.10125-19.56375 20.005-19.56375 10.905 0 19.75625 8.72 20.005 19.56375h-40.01"/></svg>